<?xml version="1.0" encoding="UTF-8"?>
<svg width="71px" height="71px" viewBox="0 0 71 71" version="1.1" xmlns="http://www.w3.org/2000/svg" xmlns:xlink="http://www.w3.org/1999/xlink">
    <!-- Generator: Sketch 55.2 (78181) - https://sketchapp.com -->
    <title>Group 11</title>
    <desc>Created with Sketch.</desc>
    <g id="Symbols" stroke="none" stroke-width="1" fill="none" fill-rule="evenodd">
        <g id="Hackathons" transform="translate(1.000000, 1.000000)">
            <g id="Group-11" transform="translate(0.000000, 0.000000)">
                <path d="M68.6347059,34.1166667 C68.6347059,52.9589434 53.3601266,68.2333333 34.5181612,68.2333333 C15.6759518,68.2333333 0.401372549,52.9589434 0.401372549,34.1166667 C0.401372549,15.2746339 15.6759518,0 34.5181612,0 C53.3601266,0 68.6347059,15.2746339 68.6347059,34.1166667 Z" id="Stroke-1" stroke="#000000" stroke-width="2"></path>
                <path d="M48.7013725,46.7666667 C49.024985,46.4781321 61.7347059,33.7332104 61.7347059,33.7332104 L48.7938681,20.7" id="Stroke-3" stroke="#000000" stroke-width="2"></path>
                <path d="M21.1013725,46.7666667 C20.7777601,46.4781321 8.06803922,33.7334562 8.06803922,33.7334562 L21.008877,20.7" id="Stroke-5" stroke="#000000" stroke-width="2"></path>
                <g id="Group-10" transform="translate(24.168039, 12.266667)">
                    <path d="M0.0848868293,44.3936919 L19.778534,0.143923778" id="Fill-7" fill="#FFFFFF"></path>
                    <path d="M0.0848868293,44.3936919 L19.778534,0.143923778" id="Stroke-9" stroke="#000000" stroke-width="2"></path>
                </g>
            </g>
        </g>
    </g>
</svg>